# xmcd
#
# Track frame offsets: 
#        150
#        12401
#        23295
#        33497
#        44801
#        54793
#        64679
#        76654
#        87812
#        100055
#
# Disc length: 1477 seconds
#
# Revision: 2
# Processed by: cddbd v1.5.2PL0 Copyright (c) Steve Scherf et al.
# Submitted via: ExactAudioCopy v1.3
#
DISCID=6805c30a
DTITLE=Johnny Cash - Johnny Cash
DYEAR=2006
DGENRE=Country
TTITLE0=I walk the line
TTITLE1=Cry cry cry
TTITLE2=There you go
TTITLE3=Big river
TTITLE4=Get rhythm
TTITLE5=Hey porter
TTITLE6=Give my love to Rose
TTITLE7=Mean eyed cat
TTITLE8=Next in line
TTITLE9=Belshazar
EXTD=
EXTT0=
EXTT1=
EXTT2=
EXTT3=
EXTT4=
EXTT5=
EXTT6=
EXTT7=
EXTT8=
EXTT9=
PLAYORDER=
